<?xml version="1.0" encoding="UTF-8"?><svg id="Picto_noir" xmlns="http://www.w3.org/2000/svg" viewBox="0 0 250 250"><defs><style>.cls-1{fill:#231f20;}</style></defs><path class="cls-1" d="M127.87,185.98c-35.8,0-67.79-9.91-72.82-22.55-.14-.36-.21-.73-.21-1.12v-39.13h6.04v38.49c3.88,7.64,29.3,18.28,66.99,18.28,34.1,0,55.25-12.72,58.89-18.41,0-3.34,.04-11.07,.08-18.8,.04-8.4,.08-16.8,.08-19.55h6.04c0,2.75-.04,11.16-.08,19.58-.04,8.4-.08,16.81-.08,19.55,0,.45-.1,.9-.3,1.3-3.62,7.56-27,22.37-64.63,22.37Z"/><path class="cls-1" d="M125.8,144.52c-1.85,0-3.7-.28-5.46-.83L16.27,111.9c-1.27-.39-2.14-1.56-2.14-2.89v-10.78c0-1.34,.89-2.53,2.18-2.9l103.59-29.91c3.94-1.24,8.36-1.24,12.36,.02l99.16,29.9c1.27,.38,2.15,1.56,2.15,2.89v10.78c0,1.31-.85,2.48-2.11,2.88l-100.19,31.8c-1.77,.56-3.62,.83-5.48,.83ZM20.17,106.78l101.96,31.14c2.38,.75,4.98,.75,7.34,0l98.08-31.13v-6.32l-97.03-29.26s-.02,0-.04-.01c-2.84-.89-5.98-.89-8.83,0L20.17,100.5v6.27Z"/><rect class="cls-1" x="202.86" y="129.98" width="41.32" height="6.04" transform="translate(89.98 356.2) rotate(-89.86)"/><path class="cls-1" d="M232.52,184.12h-19.03c-1.67,0-3.02-1.35-3.02-3.02v-27.45c0-1.67,1.35-3.02,3.02-3.02h19.03c1.67,0,3.02,1.35,3.02,3.02v27.45c0,1.67-1.35,3.02-3.02,3.02Zm-16.01-6.04h12.99v-21.41h-12.99v21.41Z"/></svg>