<?xml version="1.0" encoding="UTF-8"?><svg id="Picto_noir" xmlns="http://www.w3.org/2000/svg" viewBox="0 0 250 250"><defs><style>.cls-1,.cls-2,.cls-3{stroke-miterlimit:10;}.cls-1,.cls-2,.cls-3,.cls-4{stroke:#000;}.cls-1,.cls-3,.cls-4{fill:none;}.cls-1,.cls-4{stroke-width:3px;}.cls-3{stroke-width:2px;}.cls-4{stroke-linecap:round;stroke-linejoin:round;}</style></defs><path id="icon" class="cls-2" d="M129.33,129.81c-.61-.31-1.35-.61-2.12-.94-1.03-.43-2.17-.91-3.23-1.47,.41-.55,.72-1.18,.91-1.88,.71-.71,1.44-1.96,1.44-3.17,0-.61-.06-1.07-.35-1.36-.04-.04-.09-.08-.15-.12l-.03-1.8c0-.07,0-1.8-1.29-3.11-.94-.96-2.3-1.44-4.04-1.44s-3.11,.48-4.05,1.44c-1.3,1.32-1.29,3.04-1.29,3.1l-.02,1.82c-.06,.04-.11,.08-.16,.12-.29,.29-.35,.75-.35,1.36,0,1.21,.73,2.46,1.44,3.17,.19,.7,.5,1.34,.91,1.88-1.05,.57-2.2,1.04-3.23,1.47-.78,.32-1.51,.63-2.12,.94-1.85,.93-3.14,4.18-3.14,6.52v.31l.28,.12c3.35,1.5,9.82,1.62,11.72,1.62s8.36-.12,11.72-1.62l.28-.12v-.31c0-2.34-1.29-5.59-3.14-6.52Zm-12.4-4.66l-.03-.14-.1-.1c-.61-.57-1.23-1.64-1.23-2.57,0-.4,.03-.57,.06-.65h.43s.03-2.64,.03-2.64c0-.02,0-1.42,1.02-2.44,.76-.76,1.89-1.15,3.36-1.15s2.6,.38,3.36,1.14c1.02,1.03,1.02,2.43,1.02,2.46l.03,2.16,.02,.48h.43c.02,.07,.05,.24,.05,.64,0,.94-.62,2-1.23,2.57l-.1,.1-.03,.14c-.18,.71-.5,1.35-.94,1.86-2.45,1.74-4.42,.61-5.12,.09-.48-.53-.83-1.2-1.02-1.95Zm3.54,12.28c-3.68,0-8.44-.37-11.04-1.41,.11-2.18,1.32-4.72,2.6-5.36,.58-.29,1.3-.59,2.06-.91,1.14-.48,2.43-1.01,3.6-1.68,.6,.37,1.56,.82,2.74,.82,.83,0,1.77-.22,2.77-.84,1.18,.67,2.48,1.21,3.63,1.69,.76,.32,1.48,.62,2.06,.91,1.28,.64,2.49,3.18,2.6,5.36-2.6,1.04-7.36,1.41-11.04,1.41Z"/><ellipse class="cls-1" cx="43.59" cy="82.79" rx="11.81" ry="12.17"/><ellipse class="cls-1" cx="120.63" cy="38.25" rx="11.81" ry="12.17"/><ellipse class="cls-1" cx="197.73" cy="171.72" rx="11.81" ry="12.17"/><ellipse class="cls-1" cx="120.62" cy="216.28" rx="11.81" ry="12.17"/><ellipse class="cls-1" cx="43.51" cy="171.72" rx="11.81" ry="12.17"/><ellipse class="cls-3" cx="120.79" cy="127.76" rx="21.58" ry="22.22"/><ellipse class="cls-1" cx="197.73" cy="82.78" rx="11.81" ry="12.17"/><line class="cls-4" x1="61.92" y1="161.95" x2="95.47" y2="141.49"/><line class="cls-4" x1="94.65" y1="113.39" x2="61.1" y2="92.93"/><line class="cls-4" x1="178.94" y1="161.67" x2="145.39" y2="141.21"/><line class="cls-4" x1="146.75" y1="113.39" x2="180.3" y2="92.93"/><line class="cls-4" x1="120.86" y1="195.91" x2="121.09" y2="156.62"/><line class="cls-4" x1="120.58" y1="99.03" x2="120.82" y2="59.73"/></svg>