<?xml version="1.0" encoding="UTF-8"?><svg id="Picto_noir" xmlns="http://www.w3.org/2000/svg" viewBox="0 0 250 250"><defs><style>.cls-1{fill:none;stroke:#000;stroke-linecap:round;stroke-linejoin:round;stroke-width:2px;}</style></defs><path class="cls-1" d="M188,43.77h-33.61c-11.55,0-21,9.45-21,21h0c0,11.55,9.45,21,21,21h29.04l15.15,10.46v-13.33c6.23-3.66,10.43-10.43,10.43-18.13h0c0-11.55-9.45-21-21-21h0Z"/><path class="cls-1" d="M52.58,211.76h34.89c12,0,21.82-9.82,21.82-21.82h0c0-12-9.82-21.81-21.82-21.81h-30.14l-15.74-10.86v13.85c-6.46,3.8-10.83,10.83-10.83,18.82h0c0,12,9.82,21.82,21.82,21.82h0Z"/><path id="icon" d="M212.44,177.11c-2.78-1.4-6.11-2.78-9.64-4.26-4.67-1.94-9.87-4.12-14.65-6.68,1.87-2.48,3.28-5.37,4.15-8.53,3.23-3.21,6.51-8.9,6.51-14.39,0-2.77-.27-4.87-1.58-6.16-.17-.17-.4-.37-.69-.55l-.12-8.17c0-.33,.04-8.15-5.85-14.13-4.26-4.34-10.43-6.53-18.34-6.53s-14.09,2.19-18.35,6.53c-5.89,5.98-5.85,13.8-5.85,14.06l-.1,8.24c-.29,.17-.52,.37-.71,.55-1.31,1.3-1.58,3.4-1.58,6.16,0,5.49,3.3,11.18,6.51,14.39,.88,3.15,2.29,6.06,4.15,8.53-4.78,2.56-9.98,4.74-14.65,6.68-3.53,1.47-6.86,2.87-9.64,4.26-8.4,4.22-14.23,18.98-14.23,29.6v1.41l1.27,.56c15.21,6.8,44.55,7.33,53.18,7.33s37.94-.53,53.15-7.33l1.28-.56v-1.41c0-10.62-5.85-25.38-14.23-29.6Zm-56.25-21.15l-.16-.62-.48-.43c-2.78-2.58-5.59-7.42-5.59-11.67,0-1.83,.14-2.61,.26-2.94l1.97,.03,.16-12.03c0-.07,.01-6.42,4.64-11.08,3.43-3.46,8.56-5.2,15.24-5.2s11.8,1.74,15.23,5.19c4.62,4.67,4.64,11.02,4.64,11.15l.14,9.81,.07,2.16,1.93-.03c.1,.33,.24,1.12,.24,2.94,0,4.26-2.81,9.09-5.59,11.67l-.46,.43-.16,.62c-.82,3.21-2.28,6.12-4.26,8.46-11.11,7.88-20.06,2.77-23.2,.4-2.18-2.41-3.76-5.44-4.62-8.86Zm16.05,55.73c-16.69,0-38.29-1.7-50.1-6.4,.49-9.88,6.01-21.4,11.81-24.33,2.65-1.33,5.91-2.69,9.36-4.13,5.19-2.16,11.03-4.59,16.35-7.61,2.71,1.7,7.06,3.72,12.43,3.72,3.76,0,8.02-.99,12.57-3.79,5.36,3.04,11.25,5.5,16.48,7.68,3.46,1.44,6.71,2.81,9.36,4.13,5.8,2.92,11.31,14.45,11.8,24.33-11.8,4.7-33.39,6.4-50.07,6.4Z"/><path id="icon-2" d="M115.78,108.66c-2.78-1.4-6.11-2.78-9.64-4.26-4.67-1.94-9.87-4.12-14.65-6.68,1.87-2.48,3.28-5.37,4.15-8.53,3.23-3.21,6.51-8.9,6.51-14.39,0-2.77-.27-4.87-1.58-6.16-.17-.17-.4-.37-.69-.55l-.12-8.17c0-.33,.04-8.15-5.85-14.13-4.26-4.34-10.43-6.53-18.34-6.53s-14.09,2.19-18.35,6.53c-5.89,5.98-5.85,13.8-5.85,14.06l-.1,8.24c-.29,.17-.52,.37-.71,.55-1.31,1.3-1.58,3.4-1.58,6.16,0,5.49,3.3,11.18,6.51,14.39,.88,3.15,2.29,6.06,4.15,8.53-4.78,2.56-9.98,4.74-14.65,6.68-3.53,1.47-6.86,2.87-9.64,4.26-8.4,4.22-14.23,18.98-14.23,29.6v1.41l1.27,.56c15.21,6.8,44.55,7.33,53.18,7.33s37.94-.53,53.15-7.33l1.28-.56v-1.41c0-10.62-5.85-25.38-14.23-29.6Zm-56.25-21.15l-.16-.62-.48-.43c-2.78-2.58-5.59-7.42-5.59-11.67,0-1.83,.14-2.61,.26-2.94l1.97,.03,.16-12.03c0-.07,.01-6.42,4.64-11.08,3.43-3.46,8.56-5.2,15.24-5.2s11.8,1.74,15.23,5.19c4.62,4.67,4.64,11.02,4.64,11.15l.14,9.81,.07,2.16,1.93-.03c.1,.33,.24,1.12,.24,2.94,0,4.26-2.81,9.09-5.59,11.67l-.46,.43-.16,.62c-.82,3.21-2.28,6.12-4.26,8.46-11.11,7.88-20.06,2.77-23.2,.4-2.18-2.41-3.76-5.44-4.62-8.86Zm16.05,55.73c-16.69,0-38.29-1.7-50.1-6.4,.49-9.88,6.01-21.4,11.81-24.33,2.65-1.33,5.91-2.69,9.36-4.13,5.19-2.16,11.03-4.59,16.35-7.61,2.71,1.7,7.06,3.72,12.43,3.72,3.76,0,8.02-.99,12.57-3.79,5.36,3.04,11.25,5.5,16.48,7.68,3.46,1.44,6.71,2.81,9.36,4.13,5.8,2.92,11.31,14.45,11.8,24.33-11.8,4.7-33.39,6.4-50.07,6.4Z"/></svg>