<?xml version="1.0" encoding="UTF-8"?><svg id="Picto_noir" xmlns="http://www.w3.org/2000/svg" viewBox="0 0 250 250"><defs><style>.cls-1{stroke:#000;stroke-miterlimit:10;}</style></defs><path id="icon" d="M202.7,34.98H70.82c-6.81,0-12.36,5.55-12.36,12.36v12.36h-15.11c-6.81,0-12.36,5.55-12.36,12.36V203.94c0,6.81,5.55,12.36,12.36,12.36H175.22c6.84,0,12.36-5.55,12.36-12.36v-6.87h15.11c6.84,0,12.36-5.55,12.36-12.36V47.34c0-6.81-5.52-12.36-12.36-12.36Zm-23.35,168.96c0,2.28-1.84,4.12-4.12,4.12H43.35c-2.25,0-4.12-1.84-4.12-4.12V72.07c0-2.28,1.87-4.12,4.12-4.12H175.22c2.28,0,4.12,1.84,4.12,4.12V203.94Zm27.47-19.23c0,2.28-1.84,4.12-4.12,4.12h-15.11V72.07c0-6.81-5.52-12.36-12.36-12.36H66.7v-12.36c0-2.28,1.87-4.12,4.12-4.12H202.7c2.28,0,4.12,1.84,4.12,4.12V184.71Z"/><path id="icon-2" class="cls-1" d="M147.54,153.73c-2.64-1.33-5.81-2.64-9.17-4.06-4.44-1.85-9.39-3.92-13.94-6.36,1.78-2.36,3.12-5.11,3.95-8.11,3.07-3.06,6.19-8.47,6.19-13.69,0-2.63-.26-4.63-1.51-5.86-.16-.16-.38-.36-.66-.52l-.11-7.77c0-.32,.04-7.76-5.56-13.44-4.06-4.12-9.92-6.21-17.44-6.21s-13.4,2.08-17.46,6.21c-5.6,5.69-5.56,13.13-5.56,13.37l-.1,7.84c-.27,.16-.49,.36-.67,.52-1.25,1.23-1.51,3.23-1.51,5.86,0,5.22,3.14,10.63,6.19,13.69,.84,3,2.18,5.77,3.95,8.11-4.55,2.44-9.5,4.51-13.94,6.36-3.36,1.4-6.52,2.73-9.17,4.06-7.99,4.01-13.54,18.06-13.54,28.16v1.34l1.21,.53c14.47,6.47,42.38,6.97,50.59,6.97s36.09-.51,50.56-6.97l1.22-.53v-1.34c0-10.1-5.56-24.14-13.54-28.16Zm-53.51-20.11l-.15-.59-.45-.41c-2.64-2.45-5.32-7.06-5.32-11.1,0-1.74,.14-2.48,.25-2.8l1.88,.03,.15-11.44c0-.07,.01-6.11,4.41-10.54,3.26-3.29,8.14-4.95,14.5-4.95s11.22,1.66,14.48,4.93c4.4,4.44,4.41,10.48,4.41,10.61l.14,9.33,.07,2.06,1.84-.03c.1,.32,.23,1.07,.23,2.8,0,4.06-2.67,8.65-5.32,11.1l-.44,.41-.15,.59c-.78,3.06-2.16,5.82-4.06,8.04-10.56,7.5-19.09,2.63-22.07,.38-2.07-2.29-3.58-5.18-4.4-8.43Zm15.26,53.01c-15.88,0-36.42-1.62-47.66-6.08,.47-9.4,5.71-20.36,11.24-23.14,2.52-1.26,5.62-2.56,8.91-3.93,4.93-2.06,10.5-4.37,15.55-7.23,2.58,1.62,6.71,3.54,11.82,3.54,3.58,0,7.63-.95,11.96-3.6,5.1,2.89,10.7,5.23,15.68,7.3,3.29,1.37,6.39,2.67,8.91,3.93,5.52,2.78,10.76,13.74,11.22,23.14-11.22,4.47-31.76,6.08-47.63,6.08Z"/></svg>